<svg id="Layer_1" enable-background="new 0 0 512 512" height="512" viewBox="0 0 512 512" width="512" xmlns="http://www.w3.org/2000/svg"><path d="m504.5 445.743h-12v-218.015c0-22.324-18.161-40.485-40.485-40.485h-53.515v-29.807l49.669-68.747c1.495 2.266 2.521 4.833 2.965 7.593.825 5.122-.394 10.259-3.433 14.464l-32.077 44.399c-5.6 7.753 6.531 16.576 12.158 8.785l32.077-44.399c5.386-7.453 7.546-16.557 6.083-25.635-1.09-6.768-4.099-12.916-8.647-17.839l15.095-20.892c5.122-7.09 7.177-15.749 5.786-24.385-1.392-8.635-6.063-16.211-13.152-21.333-14.633-10.571-35.144-7.269-45.717 7.365l-66.487 92.025c-2.6-.384-5.233-.594-7.873-.594h-180.894c-29.529 0-53.553 24.023-53.553 53.553v25.447h-50.515c-22.323 0-40.485 18.162-40.485 40.485v133.265c0 9.675 15 9.675 15 0v-133.265c0-14.053 11.433-25.485 25.485-25.485h50.515v17.832h-53.5c-4.143 0-7.5 3.357-7.5 7.5v218.168h-15v-44.75c0-9.675-15-9.675-15 0v44.75h-12c-4.143 0-7.5 3.357-7.5 7.5v18.361c0 20.479 16.66 37.139 37.139 37.139h372.861c9.675 0 9.675-15 0-15h-372.861c-12.207 0-22.139-9.932-22.139-22.139v-10.861h201v.105c0 13.451 10.943 24.395 24.395 24.395h31.211c13.451 0 24.395-10.943 24.395-24.395v-.105h201v10.861c0 12.207-9.932 22.139-22.139 22.139h-22.862c-9.675 0-9.675 15 0 15h22.861c20.479 0 37.139-16.66 37.139-37.139v-18.361c0-4.143-3.357-7.5-7.5-7.5zm-199.088-234.136 17.81 12.868-18.263 6.519zm32.072 4.667-28.766-20.783 99.271-137.4 28.766 20.783zm93.982-190.677c5.729-7.931 16.845-9.722 24.775-3.991 3.841 2.775 6.372 6.881 7.126 11.561.754 4.679-.359 9.371-3.135 13.213l-14.692 20.335-28.766-20.783zm-150.466 435.251c0 5.18-4.215 9.395-9.395 9.395h-31.211c-5.18 0-9.395-4.215-9.395-9.395v-.105h50v.105zm-216.5-15.105v-210.668h46v33.615c0 26.984 20.062 49.371 46.053 53.029v57.023c0 3.033 1.827 5.769 4.63 6.929.928.385 1.902.571 2.868.571 1.952 0 3.87-.762 5.306-2.196l61.803-61.804h74.84c9.675 0 9.675-15 0-15h-77.947c-1.989 0-3.896.79-5.304 2.196l-51.196 51.197v-45.894c0-4.143-3.357-7.5-7.5-7.5-21.258 0-38.553-17.295-38.553-38.553v-106.893c0-21.258 17.295-38.553 38.553-38.553h178.359l-50.244 69.543c-.88 1.218-1.367 2.72-1.419 4.218l-1.041 44.547c-.119 5.118 5.17 8.97 10.02 7.238l41.965-14.979c1.403-.491 2.689-1.468 3.558-2.671l38.25-52.941v90.493c0 21.258-17.295 38.553-38.553 38.553-9.675 0-9.675 15 0 15 29.529 0 53.553-24.023 53.553-53.553v-33.615h49v210.668zm398 0v-218.168c0-4.143-3.357-7.5-7.5-7.5h-56.5v-17.832h53.515c14.053 0 25.485 11.433 25.485 25.485v218.015z"/><path d="m259 234.225h-83c-4.143 0-7.5 3.357-7.5 7.5s3.357 7.5 7.5 7.5h83c4.143 0 7.5-3.357 7.5-7.5s-3.357-7.5-7.5-7.5z"/><path d="m259 181.252h-83c-4.143 0-7.5 3.357-7.5 7.5s3.357 7.5 7.5 7.5h83c4.143 0 7.5-3.357 7.5-7.5s-3.357-7.5-7.5-7.5z"/></svg>